<svg xmlns="http://www.w3.org/2000/svg" xmlns:xlink="http://www.w3.org/1999/xlink" width="189" height="20" viewBox="0 0 189 20"><defs><path id="a" d="M.04.592h188.6v20.589H.04z"/></defs><g fill="none" fill-rule="evenodd"><path fill="#FFF" d="M72 6.097v-.335C73.428 5.01 74.47 3.776 75.184 2h.57v3.575h1.654v.522h-1.653v5.835c0 .73.184 1.086.632 1.086.49 0 .818-.377 1-1.172l.021-.165.592.103C77.674 13.27 76.796 14 75.347 14c-1.367 0-2.02-.647-2.02-2.068V6.097H72M83.45 8.55h-.492c-.177-1.155-1.083-1.962-2.204-1.962-.826 0-1.377.458-1.377 1.135 0 .544.354 1.011 1.122 1.23 1.417.414 2.006.63 2.478.914.65.393 1.023 1.058 1.023 1.974C84 13.672 82.78 15 81.088 15a3.562 3.562 0 0 1-1.888-.587c-.197-.153-.256-.197-.393-.197-.178 0-.276.197-.296.567H78v-3.181h.511c.138 1.655 1.22 2.832 2.637 2.832.925 0 1.633-.588 1.633-1.33 0-.763-.334-1.044-1.87-1.502-.629-.174-1.259-.414-1.553-.568-.748-.37-1.26-1.286-1.26-2.223C78.099 7.244 79.22 6 80.618 6c.511 0 .885.11 1.594.437.255.11.334.151.452.151.197 0 .256-.13.295-.588h.491v2.55m12.714-1.416c-.27-.348-.686-.546-1.173-.546-.723 0-1.318.481-1.498 1.244-.127.545-.181 1.328-.181 2.68 0 2.113.126 2.898.524 3.378.288.349.704.544 1.155.544.758 0 1.336-.48 1.516-1.242.127-.543.181-1.35.181-2.68 0-2.135-.126-2.898-.524-3.378zM94.991 15C92.752 14.979 91 13.039 91 10.511 91 7.983 92.752 6 94.991 6 97.266 6 99 7.983 99 10.511S97.266 15 94.991 15zM97.5 2c.841 0 1.5.67 1.5 1.5-.022.83-.659 1.5-1.5 1.5S96 4.33 96 3.5 96.659 2 97.5 2m-4.011 0C94.323 2 95 2.67 95 3.5S94.323 5 93.489 5a1.5 1.5 0 0 1 0-3m15.781 4.801h-1.25v-.556h.576c1.423 0 2.02-.045 2.942-.245v1.581c.732-1.025 1.674-1.56 2.732-1.56 1.153 0 2.038.647 2.364 1.738.674-1.179 1.578-1.737 2.731-1.737 1.712 0 2.366.824 2.366 2.986v5.436H123V15h-4.558v-.556h1V9.008c0-1.827-.115-2.095-.903-2.095-1.193 0-1.905 1.248-1.905 3.276v4.255h1.001V15h-4.288v-.556h1V9.008c0-1.672-.174-2.095-.942-2.095-1.213 0-1.867 1.158-1.867 3.276v4.255h1.02V15H108v-.556h1.27V6.801m28.369 3.746c0-1.638-.205-2.599-.746-3.276-.319-.415-.692-.632-1.046-.632-.971 0-1.438 1.2-1.438 3.558 0 1.07.112 2.248.28 2.992.187.74.616 1.156 1.195 1.156.971 0 1.698-1.485 1.755-3.58v-.218zm-.074 2.947c-.542 1.028-1.252 1.506-2.185 1.506-1.905 0-3.38-1.92-3.38-4.433 0-2.51 1.494-4.585 3.305-4.585.934 0 1.568.415 2.26 1.507V.786h-1.214V.24h.578c1.383 0 1.98-.044 2.857-.24v14.237H141v.545h-3.435v-1.288zM142.32.797h-1.3V.244h.6c1.48 0 2.12-.045 3.06-.244v14.447H146V15h-5v-.553h1.32V.797m6.169.203c.847 0 1.511.679 1.511 1.511 0 .813-.664 1.489-1.511 1.489A1.509 1.509 0 0 1 147 2.511 1.5 1.5 0 0 1 148.489 1m-.163 5.801h-1.306v-.556h.603c1.486 0 2.128-.045 3.073-.245v8.444H152V15h-5v-.556h1.326V6.801m4.934 0h-1.24v-.556h.57c1.413 0 2.005-.045 2.92-.245v1.626c.707-1.025 1.738-1.604 2.864-1.604 1.641 0 2.366.87 2.366 2.874v5.548H162V15h-4.522v-.556h.992V8.896c0-1.493-.21-1.983-.936-1.983-1.297 0-2.023 1.158-2.023 3.23v4.301h1.012V15H152v-.556h1.26V6.801m27 0h-1.24v-.556h.572c1.412 0 2.003-.045 2.92-.245v1.626c.706-1.025 1.737-1.604 2.844-1.604 1.66 0 2.384.87 2.384 2.874v5.548H189V15h-4.523v-.556h.993V8.896c0-1.493-.21-1.983-.936-1.983-1.297 0-2.022 1.158-2.022 3.23v4.301h1.011V15H179v-.556h1.26V6.801m-74.881-.779c-.741 0-1.56.632-2.014 1.792V6c-.855.2-1.455.245-2.856.245h-.491V6.8h1.2v7.643H100V15h4.748v-.556h-1.383v-3.877c0-1.291.107-1.983.597-2.851.128-.206.292-.477.48-.666.143-.137.274-.225.354-.225.05 0 .087.005.122.041.036.036.06.157-.018.26l-.079.103c-.12.142-.222.39-.222.615 0 .654.503 1.079 1.156 1.079.73 0 1.245-.553 1.245-1.308 0-.92-.692-1.593-1.621-1.593m-45.221 7.167c-.227.74-.749 1.156-1.453 1.156-1.18 0-2.069-1.485-2.132-3.58v-.218c0-1.638.248-2.599.907-3.276.385-.415.84-.632 1.27-.632 1.18 0 1.747 1.2 1.747 3.558 0 1.07-.135 2.248-.34 2.992zm-.925-7.207c-1.065 0-1.846.415-2.581 1.507V0c-.953.196-1.548.24-3.037.24H53v.546h1.29v13.451H53v.545h3.652v-1.288C57.228 14.522 58.084 15 59.147 15 61.32 15 63 13.08 63 10.567c0-2.51-1.702-4.585-3.767-4.585zm107.371 3.531c0 1.332-.289 1.808-1.082 1.808-.793 0-1.081-.476-1.081-1.808V7.897c0-1.315.288-1.811 1.081-1.811.793 0 1.082.496 1.082 1.81v1.617zm1.23 6.417c.648 0 1.05.345 1.05 1.098 0 1.357-1.353 2.39-3.136 2.39-1.532 0-2.54-.84-2.54-2.089 0-.537.161-.946.558-1.399h4.067zm.594-9.742c.06 0 .1.02.16.095.219.226.417.32.676.32a.739.739 0 0 0 .736-.754c0-.49-.378-.849-.894-.849-.578 0-.955.339-1.254 1.092a2.69 2.69 0 0 0-.087.278c-.653-.6-1.34-.865-2.207-.865-1.838 0-3.207 1.378-3.207 3.21 0 .99.36 1.765 1.116 2.455l.087.063c-.91.396-1.554 1.397-1.554 2.456 0 1.034.487 1.768 1.37 2.068-.883.28-1.334.862-1.334 1.745 0 1.443 1.531 2.498 3.622 2.498 2.487 0 4.073-1.487 4.073-3.813 0-.862-.187-1.482-.56-1.931-.55-.662-1.21-.831-2.436-.831l-1.257.007h-1.386c-.848 0-1.174-.13-1.174-.604 0-.522.44-1.045 1.07-1.305a3.38 3.38 0 0 0 1.57.38c1.82 0 3.136-1.358 3.136-3.232 0-.56-.109-1.01-.324-1.528-.015-.033-.04-.08-.056-.122-.13-.31-.109-.472-.109-.472 0-.208.084-.36.223-.36z"/><path fill="#FFF" d="M90.098 0c-1.16 0-2.34.738-3.04 1.896-.519.913-.759 1.983-.759 3.61v.678H85v.614h1.3v7.646H85V15h5.478v-.556h-1.8V6.798h1.8v-.614h-1.82V2.63c0-1.428.32-2.029 1.08-2.029.308 0 .514.103.514.269 0 .082-.026.074-.175.215-.193.201-.278.382-.278.603 0 .503.47.905 1.068.905.663 0 1.133-.463 1.133-1.106C92 .663 91.2 0 90.098 0M66.63 9.435v.002-.002zm.002-.056v.002-.002zm1.525-2.792c1.067.016 1.317.432 1.317 2.24v.498h-2.839c.014-.363.042-.835.087-1.009.1-1.29.533-1.742 1.435-1.729zM72 9.98v-.283C72 7.676 70.293 6 68.208 6 65.834 6 64 7.946 64 10.478c0 1.869 1.04 3.427 2.54 4.12.548.254 1.154.4 1.797.402 1.58.003 2.78-.826 3.663-2.588l-.483-.259c-.728 1.436-1.701 2.187-2.8 2.216l-.093.003c-.29.001-.611-.025-.887-.125a1.39 1.39 0 0 1-.333-.177 1.502 1.502 0 0 1-.325-.333c-.281-.396-.401-.98-.442-1.98a60.111 60.111 0 0 1-.013-1.777H72zm55.157-3.392c1.067.015 1.317.431 1.317 2.239v.498h-2.84c.015-.363.043-.834.089-1.008.098-1.29.531-1.743 1.434-1.73zM131 9.98v-.283C131 7.677 129.292 6 127.209 6 124.835 6 123 7.946 123 10.478c0 1.87 1.04 3.427 2.541 4.12a4.28 4.28 0 0 0 1.796.402c1.58.004 2.78-.826 3.663-2.587l-.484-.26c-.728 1.436-1.7 2.187-2.799 2.217l-.093.002c-.29.002-.611-.025-.887-.125a1.355 1.355 0 0 1-.658-.51c-.281-.395-.402-.98-.442-1.98a65.346 65.346 0 0 1-.014-1.29l.001-.487H131z"/><g transform="translate(0 -1)"><mask id="b" fill="#fff"><use xlink:href="#a"/></mask><path fill="#FFF" d="M174.635 7.159c1.017.015 1.255.43 1.255 2.239v.498h-2.708c.014-.363.04-.834.083-1.008.095-1.29.509-1.743 1.37-1.73zm3.665 3.392v-.283c0-2.02-1.628-3.697-3.617-3.697-2.264 0-4.014 1.946-4.014 4.478 0 1.87.992 3.427 2.424 4.122.521.253 1.1.4 1.713.4 1.506.005 2.65-.825 3.494-2.586l-.461-.26c-.694 1.436-1.623 2.187-2.67 2.217l-.09.002c-.276.001-.583-.025-.845-.126a1.267 1.267 0 0 1-.318-.176 1.458 1.458 0 0 1-.31-.333c-.268-.396-.383-.98-.423-1.98a75.054 75.054 0 0 1-.011-1.778h5.128zM16.244 15.12l-5.665-7.845c-1.046-1.422-2.533-2.452-4.242-2.63-2.33-.213-4.424.799-5.618 2.731-1.028 1.654-.936 4.061.165 5.646.991 1.48 2.59 2.22 4.334 2.289H16.14c.133 0 .18-.086.104-.191" mask="url(#b)"/></g><path fill="#FFF" d="M30.843 13.812c-.558-.189-1.56-.462-2.523-1.051a5.896 5.896 0 0 1-1.672-1.54L19.785 1.82C18.9.7 17.646 0 15.55 0H7.201c-.26 0-.26.113-.043.187.717.247 3.165 1.216 4.571 3.131l6.557 8.931c.921 1.153 2.221 1.71 3.685 1.751h8.827c.262 0 .26-.114.045-.188m5.667-4.22l1.833-5.43 1.852 5.43H36.51zm14.816-4.064c-.864 0-1.69.673-2.16 1.767V5.507c-.883.19-1.503.231-2.949.231h-.507v.525h1.24v7.213h-2.644L39.804 0h-.793l-4.126 12.228-.16.485c-.163.467-.331.687-.952.76l-.18.003H33V14h4.062v-.524h-1.04c-.521 0-.68-.065-.68-.296 0-.103.04-.209.159-.588l.82-2.334h4.123l1.06 3.218h-1.7V14h10.79v-.524h-1.428V9.817c0-1.218.15-1.871.658-2.69a3.99 3.99 0 0 1 .535-.63c.147-.128.282-.211.366-.211.05 0 .09.005.126.039.037.034.06.148-.02.245l-.08.097a.94.94 0 0 0-.23.58c0 .618.52 1.018 1.193 1.018.755 0 1.286-.52 1.286-1.234 0-.867-.715-1.503-1.674-1.503z"/></g></svg>