<svg xmlns="http://www.w3.org/2000/svg" viewBox="0 0 273.76 99.75"><title>ajob_logo</title><path d="M97.26,99.73H73.44a4.84,4.84,0,0,1-3.31-1A3.39,3.39,0,0,1,69,96.11a3.45,3.45,0,0,1,1.12-2.64,4.72,4.72,0,0,1,3.32-1l23.7.06a12.88,12.88,0,0,0,9.91-4,14,14,0,0,0,3.79-10V7.27H91.61a4.94,4.94,0,0,1-3.37-1,3.6,3.6,0,0,1-.16-5.09L88.24,1a4.94,4.94,0,0,1,3.37-1h37.77a4.84,4.84,0,0,1,3.31,1,3.6,3.6,0,0,1,.16,5.09l-.16.16a4.84,4.84,0,0,1-3.31,1h-11.3L118,78.62a21.84,21.84,0,0,1-2.85,11.53,20.79,20.79,0,0,1-8.52,7.57A20.56,20.56,0,0,1,97.26,99.73Z" transform="translate(0 0.01)" fill="#00dc32"></path><path d="M20.75,81.23c-6.42,0-11.53-1.67-15.19-5A16,16,0,0,1,0,64c0-5.29,2.44-10,7.26-13.88S19,44.25,28,44.25a72.37,72.37,0,0,1,7.86.47c2.45.27,5.12.68,7.93,1.22V38.83c0-2.53-1.16-4.69-3.56-6.6S34,29.31,29,29.31c-3.9,0-9.49,1.16-16.61,3.46a10.57,10.57,0,0,1-2.83.66,3.28,3.28,0,0,1-2.41-1,3.54,3.54,0,0,1-1-2.54,3.21,3.21,0,0,1,.91-2.37c.5-.53,1.79-1.31,7.4-2.78C21,23,25.93,22.12,29.28,22.12c6.74,0,12.1,1.71,15.92,5.08S51,34.53,51,38.87v33.2H66.29a4.94,4.94,0,0,1,3.37,1,3.56,3.56,0,0,1,.18,5l-.18.18a4.83,4.83,0,0,1-3.39,1H43.85V72.85C36.65,78.42,28.91,81.23,20.75,81.23Zm7.81-29.77c-7.24,0-13,1.57-17,4.65-3,2.25-4.41,4.82-4.41,7.88a9,9,0,0,0,3.38,7.16c2.24,2,5.61,3,10,3a28.32,28.32,0,0,0,12-2.58,43.64,43.64,0,0,0,11.26-8V53.25A49.06,49.06,0,0,0,37,51.95a70.4,70.4,0,0,0-8.37-.49Z" transform="translate(0 0.01)" fill="#00dc32"></path><path d="M166.84,81.23A29.57,29.57,0,0,1,137.23,51.7h0a29.58,29.58,0,0,1,59.15-1.09q0,.54,0,1.09a29.57,29.57,0,0,1-29.54,29.54Zm-.09-51.92A22.41,22.41,0,0,0,144.3,51.68h0a22.45,22.45,0,1,0,38.38-15.84A21.78,21.78,0,0,0,166.75,29.31Z" transform="translate(0 0.01)" fill="#00dc32"></path><path d="M245.32,81.23c-8.43,0-15.68-3.47-21.58-10.33v8.3H210.63a4.72,4.72,0,0,1-3.32-1,3.56,3.56,0,0,1-.17-5l.17-.17a4.84,4.84,0,0,1,3.31-1h6V7.23h-6a4.72,4.72,0,0,1-3.32-1,3.6,3.6,0,0,1-.13-5.09L207.3,1a4.72,4.72,0,0,1,3.32-1h13.13V32.47c6.06-6.89,13.31-10.39,21.58-10.39a27.26,27.26,0,0,1,20.09,8.51,28.76,28.76,0,0,1,8.33,20.85,29.26,29.26,0,0,1-8.43,21.12A27.12,27.12,0,0,1,245.32,81.23Zm-.12-51.92a20.47,20.47,0,0,0-15,6.5,21.85,21.85,0,0,0-6.42,15.88,21.85,21.85,0,0,0,6.42,15.88,20.5,20.5,0,0,0,29,1q.53-.5,1-1a21.85,21.85,0,0,0,6.42-15.88,21.85,21.85,0,0,0-6.42-15.88A20.48,20.48,0,0,0,245.2,29.31Z" transform="translate(0 0.01)" fill="#00dc32"></path></svg>