<svg xmlns="http://www.w3.org/2000/svg" width="20" height="13" viewBox="0 0 20 13"><path fill="#FFF" d="M1.463 0A1.45 1.45 0 0 0 0 1.444v10.112C0 12.356.653 13 1.463 13h17.074A1.45 1.45 0 0 0 20 11.556V1.444C20 .644 19.347 0 18.537 0H1.463zm1.03 2.4a.512.512 0 0 1 .396.135l6.425 5.86c.4.366.956.366 1.357 0l6.44-5.86a.512.512 0 0 1 .69.027.494.494 0 0 1-.027.68L14.131 6.56l3.636 3.19a.497.497 0 0 1 .073.708.513.513 0 0 1-.721.007l-3.704-3.25-2.081 1.888a1.997 1.997 0 0 1-2.683 0L6.585 7.215l-3.704 3.25a.513.513 0 0 1-.72-.007.497.497 0 0 1 .072-.708L5.87 6.56 2.226 3.242a.49.49 0 0 1-.147-.507.498.498 0 0 1 .413-.335z"/></svg>