<svg xmlns="http://www.w3.org/2000/svg" width="20" height="20" viewBox="0 0 20 20"><path fill="#FFF" stroke="#000" stroke-width=".5" d="M18.56 15.588l-2.654-2.707c-.724-.803-1.342-.134-1.342-.134l-1.61 1.633c-.456.63-1.228.5-2.11-.023a40.731 40.731 0 0 1-2.798-2.405 40.729 40.729 0 0 1-2.404-2.798c-.524-.881-.654-1.657-.024-2.11l1.633-1.609s.67-.618-.133-1.342L4.41 1.441s-.724-.992-1.449 0L1.58 2.83S.454 4.239 1.34 6.647c.885 2.409 1.385 3.101 1.385 3.101s.2.41.65 1.083l-.012.011c.145.205.291.402.437.595.52.708 1.247 1.593 2.212 2.554.96.964 1.842 1.692 2.554 2.211.193.146.39.292.594.437l.012-.012c.673.45 1.082.65 1.082.65s.69.504 3.102 1.385c2.413.882 3.818-.24 3.818-.24l1.385-1.385c.992-.728 0-1.449 0-1.449z"/></svg>